HIERARCHY
ROOT joint_Root
{
	OFFSET 0.0 0.0 0.0
	CHANNELS 6 Xposition Yposition Zposition Zrotation Xrotation Yrotation 
	JOINT Hips
	{
		OFFSET 4.5925 91.4895 -427.239
		CHANNELS 6 Xposition Yposition Zposition Zrotation Xrotation Yrotation 
		JOINT Spine
		{
			OFFSET 15.7357 0.0 0.0
			CHANNELS 6 Xposition Yposition Zposition Zrotation Xrotation Yrotation 
			JOINT Chest
			{
				OFFSET 8.98455 -0.406207 0.0
				CHANNELS 6 Xposition Yposition Zposition Zrotation Xrotation Yrotation 
				JOINT Neck
				{
					OFFSET 16.3773 0.0 0.0
					CHANNELS 6 Xposition Yposition Zposition Zrotation Xrotation Yrotation 
					JOINT Head
					{
						OFFSET 6.45672 0.0 0.0
						CHANNELS 6 Xposition Yposition Zposition Zrotation Xrotation Yrotation 
						End Site
						{
							OFFSET 0.0 0.0 0.0
						}
					}
				}
				JOINT Shoulder_L
				{
					OFFSET 12.9942 -0.242716 4.98039
					CHANNELS 6 Xposition Yposition Zposition Zrotation Xrotation Yrotation 
					JOINT UpperArm_L
					{
						OFFSET 5.34809 0.0 0.0
						CHANNELS 6 Xposition Yposition Zposition Zrotation Xrotation Yrotation 
						JOINT LowerArm_L
						{
							OFFSET 24.3286 1.87007e-05 0.0
							CHANNELS 6 Xposition Yposition Zposition Zrotation Xrotation Yrotation 
							JOINT Hand_L
							{
								OFFSET 22.2916 0.0 0.0
								CHANNELS 6 Xposition Yposition Zposition Zrotation Xrotation Yrotation 
								End Site
								{
									OFFSET 0.0 0.0 0.0
								}
							}
						}
					}
				}
				JOINT Shoulder_R
				{
					OFFSET 12.9945 -0.242716 -4.98039
					CHANNELS 6 Xposition Yposition Zposition Zrotation Xrotation Yrotation 
					JOINT UpperArm_R
					{
						OFFSET -5.34813 0.0 0.0
						CHANNELS 6 Xposition Yposition Zposition Zrotation Xrotation Yrotation 
						JOINT LowerArm_R
						{
							OFFSET -24.3289 0.000322201 0.0
							CHANNELS 6 Xposition Yposition Zposition Zrotation Xrotation Yrotation 
							JOINT Hand_R
							{
								OFFSET -22.2915 -0.000108084 0.0
								CHANNELS 6 Xposition Yposition Zposition Zrotation Xrotation Yrotation 
								End Site
								{
									OFFSET 0.0 0.0 0.0
								}
							}
						}
					}
				}
			}
		}
		JOINT UpperLeg_L
		{
			OFFSET -2.19248 -6.46944 0.0
			CHANNELS 6 Xposition Yposition Zposition Zrotation Xrotation Yrotation 
			JOINT LowerLeg_L
			{
				OFFSET 39.0811 0.0 -1.23785e-05
				CHANNELS 6 Xposition Yposition Zposition Zrotation Xrotation Yrotation 
				JOINT Foot_L
				{
					OFFSET 40.9854 0.0 -1.26872e-05
					CHANNELS 6 Xposition Yposition Zposition Zrotation Xrotation Yrotation 
					JOINT Toes_L
					{
						OFFSET 11.7543 0.0 0.0
						CHANNELS 6 Xposition Yposition Zposition Zrotation Xrotation Yrotation 
						End Site
						{
							OFFSET 0.0 0.0 0.0
						}
					}
				}
			}
		}
		JOINT UpperLeg_R
		{
			OFFSET -2.19251 6.46944 0.0
			CHANNELS 6 Xposition Yposition Zposition Zrotation Xrotation Yrotation 
			JOINT LowerLeg_R
			{
				OFFSET -39.0811 -0.00228153 -0.0401928
				CHANNELS 6 Xposition Yposition Zposition Zrotation Xrotation Yrotation 
				JOINT Foot_R
				{
					OFFSET -40.9854 0.0 0.0
					CHANNELS 6 Xposition Yposition Zposition Zrotation Xrotation Yrotation 
					JOINT Toes_R
					{
						OFFSET -11.7543 0.0 0.0
						CHANNELS 6 Xposition Yposition Zposition Zrotation Xrotation Yrotation 
						End Site
						{
							OFFSET 0.0 0.0 0.0
						}
					}
				}
			}
		}
	}
}
MOTION
Frames:	6
Frame Time:	0.0333333
0.000000 0.000000 0.000000 0.000000 0.000000 -0.000000 0.124587 89.634400 524.697000 -85.482500 -4.715020 175.742000 15.735700 0.000005 -0.000001 49.570800 81.661800 -47.888500 8.984550 -0.406207 -0.000000 5.163510 -10.831000 3.858230 16.377300 -0.000001 -0.000001 2.733470 -1.072550 0.136622 6.456720 -0.000001 -0.000000 0.424452 4.401130 0.523372 12.994200 -0.242716 4.980390 -87.249400 -7.183410 -68.984900 5.348090 -0.000007 -0.000001 -43.047900 11.869000 -79.718400 24.328600 0.000019 0.000005 10.829700 -6.355580 -120.058000 22.291600 -0.000001 0.000005 12.177500 5.476220 -5.604120 12.994500 -0.242716 -4.980390 91.334000 -4.210770 -72.403200 -5.348130 -0.000001 -0.000004 -62.828100 41.482800 36.948000 -24.328900 0.000322 -0.000009 -9.793630 -1.959020 -78.799700 -22.291500 -0.000108 -0.000004 21.536500 5.662480 -16.356000 -2.192480 -6.469440 -0.000000 -173.139000 -10.699200 0.341372 39.081100 -0.000007 -0.000012 -0.054151 0.125955 23.263900 40.985400 -0.000006 -0.000013 0.726959 1.364480 -78.260100 11.754300 -0.000000 0.000003 -0.002172 -0.030854 -17.831400 -2.192510 6.469440 -0.000001 -177.112000 0.512865 145.215000 -39.081100 -0.002282 -0.040193 0.044658 -0.015557 69.468000 -40.985400 0.000008 0.000006 2.571100 -9.988940 -62.892100 -11.754300 -0.000006 -0.000006 -0.021363 -0.174724 -23.714300
0.000000 0.000000 0.000000 0.000000 0.000000 -0.000000 0.196526 89.684700 522.472000 -84.880900 -3.187050 174.865000 15.735700 0.000005 -0.000001 48.388100 81.758400 -46.392300 8.984550 -0.406207 -0.000000 4.824260 -10.977500 4.460310 16.377300 -0.000001 -0.000001 2.901130 -0.132302 0.257208 6.456720 -0.000001 -0.000000 -0.308122 5.070500 0.899107 12.994200 -0.242716 4.980390 -86.109400 -9.732760 -68.087200 5.348090 -0.000007 -0.000001 -45.281000 9.133110 -81.103400 24.328600 0.000019 0.000005 10.334400 -6.320990 -121.123000 22.291600 -0.000001 0.000005 12.154200 5.472430 -5.461450 12.994500 -0.242716 -4.980390 91.856700 -5.868860 -72.409400 -5.348130 -0.000001 -0.000004 -61.587900 38.536800 36.927900 -24.328900 0.000322 -0.000009 -8.724190 -1.295300 -81.620900 -22.291500 -0.000108 -0.000004 21.847100 5.656440 -15.666500 -2.192480 -6.469440 -0.000000 -172.157000 -11.897300 2.000770 39.081100 -0.000007 -0.000012 -0.027047 0.068501 21.546000 40.985400 -0.000006 -0.000013 0.810491 2.533390 -76.476300 11.754300 -0.000000 0.000003 -0.338778 -0.432042 -18.804900 -2.192510 6.469440 -0.000001 -176.635000 0.244324 141.619000 -39.081100 -0.002282 -0.040193 0.042032 -0.020546 62.124200 -40.985400 0.000008 0.000006 2.392910 -10.401600 -63.832600 -11.754300 -0.000006 -0.000006 -0.022067 -0.178479 -23.869200
0.000000 0.000000 0.000000 0.000000 0.000000 -0.000000 0.223823 89.279400 520.012000 -85.188300 -2.030540 174.515000 15.735700 0.000005 -0.000001 49.015700 81.713600 -47.077700 8.984550 -0.406207 -0.000000 5.005020 -10.895100 4.358230 16.377300 -0.000001 -0.000001 2.343750 0.261740 0.187960 6.456720 -0.000001 -0.000000 -1.415380 5.368790 2.050300 12.994200 -0.242716 4.980390 -85.532300 -10.531900 -66.854900 5.348090 -0.000007 -0.000001 -45.661200 8.565860 -82.361300 24.328600 0.000019 0.000005 10.716500 -6.556320 -121.104000 22.291600 -0.000001 0.000005 12.045100 5.466820 -5.251100 12.994500 -0.242716 -4.980390 91.723200 -5.470170 -72.484900 -5.348130 -0.000001 -0.000004 -60.550800 35.915300 35.691400 -24.328900 0.000322 -0.000009 -8.169480 -0.904688 -83.719600 -22.291500 -0.000108 -0.000004 22.694200 5.655550 -15.571200 -2.192480 -6.469440 -0.000000 -171.762000 -12.660700 3.499050 39.081100 -0.000007 -0.000012 -0.041831 0.105106 21.702000 40.985400 -0.000006 -0.000013 -0.085579 4.277790 -75.515300 11.754300 -0.000000 0.000003 -0.586688 -0.713931 -20.536300 -2.192510 6.469440 -0.000001 -176.232000 2.412400 139.639000 -39.081100 -0.002282 -0.040193 0.035685 -0.023946 53.575800 -40.985400 0.000008 0.000006 0.978655 -7.697010 -64.354700 -11.754300 -0.000006 -0.000006 -0.021792 -0.177018 -23.808900
0.000000 0.000000 0.000000 0.000000 0.000000 -0.000000 0.272517 88.533500 517.078000 -86.127600 -1.481180 175.164000 15.735700 0.000005 -0.000001 51.504100 81.447700 -49.876100 8.984550 -0.406207 -0.000000 5.853980 -10.647700 3.805470 16.377300 -0.000001 -0.000001 1.972890 0.454123 0.087391 6.456720 -0.000001 -0.000000 -3.167620 4.853930 3.205710 12.994200 -0.242716 4.980390 -85.613700 -10.320200 -66.821600 5.348090 -0.000007 -0.000001 -44.961700 10.804600 -81.598700 24.328600 0.000019 0.000005 11.159400 -6.684400 -120.544000 22.291600 -0.000001 0.000005 11.869200 5.461060 -5.042590 12.994500 -0.242716 -4.980390 91.082600 -3.551530 -73.037900 -5.348130 -0.000001 -0.000004 -60.781500 33.052300 33.558700 -24.328900 0.000322 -0.000009 -8.738360 -0.825929 -84.640000 -22.291500 -0.000108 -0.000004 23.280100 5.653460 -15.354400 -2.192480 -6.469440 -0.000000 -171.314000 -13.790400 5.895570 39.081100 -0.000007 -0.000012 -0.067211 0.159563 22.841700 40.985400 -0.000006 -0.000013 -0.849134 7.191460 -75.002300 11.754300 -0.000000 0.000003 -0.016399 -0.146467 -22.555000 -2.192510 6.469440 -0.000001 -175.655000 6.583900 139.358000 -39.081100 -0.002282 -0.040193 0.012811 -0.009096 46.398600 -40.985400 0.000008 0.000006 -1.843720 -2.638300 -64.379600 -11.754300 -0.000006 -0.000006 -0.022372 -0.180088 -23.935600
0.000000 0.000000 0.000000 0.000000 0.000000 -0.000000 0.557095 87.541100 513.546000 -86.881000 -2.007470 175.910000 15.735700 0.000005 -0.000001 53.762100 81.101600 -52.250500 8.984550 -0.406207 -0.000000 6.817020 -10.499400 3.653650 16.377300 -0.000001 -0.000001 0.996054 0.158522 -0.095702 6.456720 -0.000001 -0.000000 -4.219130 4.120040 3.704990 12.994200 -0.242716 4.980390 -86.465200 -8.854920 -68.139100 5.348090 -0.000007 -0.000001 -44.026700 16.160400 -77.470800 24.328600 0.000019 0.000005 11.460900 -6.578430 -119.470000 22.291600 -0.000001 0.000005 11.608100 5.465580 -5.206610 12.994500 -0.242716 -4.980390 90.121900 -0.419037 -73.849100 -5.348130 -0.000001 -0.000004 -61.805400 29.932900 30.092800 -24.328900 0.000322 -0.000009 -8.974240 -0.886173 -84.404400 -22.291500 -0.000108 -0.000004 23.915200 5.653680 -15.382100 -2.192480 -6.469440 -0.000000 -170.758000 -12.983000 7.897850 39.081100 -0.000007 -0.000012 -0.087741 0.187641 25.060800 40.985400 -0.000006 -0.000013 -1.691010 8.405630 -74.845100 11.754300 -0.000000 0.000003 -0.032408 -0.228307 -25.936200 -2.192510 6.469440 -0.000001 -173.565000 12.680500 139.211000 -39.081100 -0.002282 -0.040193 0.000110 0.003374 43.123100 -40.985400 0.000008 0.000006 -2.303800 -1.534700 -65.673200 -11.754300 -0.000006 -0.000006 -0.022310 -0.179762 -23.922100
0.000000 0.000000 0.000000 0.000000 0.000000 -0.000000 1.135360 86.583200 509.436000 -87.554200 -3.718160 175.963000 15.735700 0.000005 -0.000001 54.142300 81.178500 -52.499400 8.984550 -0.406207 -0.000000 6.768080 -10.316700 3.900620 16.377300 -0.000001 -0.000001 0.120268 -0.834424 -0.125611 6.456720 -0.000001 -0.000000 -3.602420 3.291110 3.079660 12.994200 -0.242716 4.980390 -88.214800 -5.175100 -70.963200 5.348090 -0.000007 -0.000001 -43.979500 24.432200 -68.500100 24.328600 0.000019 0.000005 11.803900 -5.985990 -116.520000 22.291600 -0.000001 0.000005 11.578100 5.480390 -5.762220 12.994500 -0.242716 -4.980390 88.757400 4.676960 -75.085900 -5.348130 -0.000001 -0.000004 -62.506500 27.518700 26.331800 -24.328900 0.000322 -0.000009 -12.447000 -1.022090 -85.369300 -22.291500 -0.000108 -0.000004 26.156800 5.651440 -15.185600 -2.192480 -6.469440 -0.000000 -170.592000 -10.172000 8.364180 39.081100 -0.000007 -0.000012 -0.085157 0.157143 28.453800 40.985400 -0.000006 -0.000013 -2.547760 7.843610 -73.789400 11.754300 -0.000000 0.000003 -0.066068 -0.351021 -31.096600 -2.192510 6.469440 -0.000001 -171.194000 19.318900 138.874000 -39.081100 -0.002282 -0.040193 0.003551 -0.000298 43.501100 -40.985400 0.000008 0.000006 -1.680730 -2.539890 -67.119000 -11.754300 -0.000006 -0.000006 -0.023259 -0.184712 -24.126400
